<svg viewBox="0 0 415 190" fill="none" xmlns="http://www.w3.org/2000/svg"><path fill="#E9EBF0" d="M0 8V6h415v2z"/><rect x="185" y="1" width="46" height="12" rx="6" fill="#fff" stroke="#E9EBF0" stroke-width="2"/><path fill="#E9EBF0" d="M0 140v-2h415v2z"/><rect x="173" y="133" width="70" height="12" rx="6" fill="#fff" stroke="#E9EBF0" stroke-width="2"/><rect x="65" y="28" width="16" height="16" rx="8" fill="#5595EF"/><circle opacity=".6" cx="73" cy="36" r="11.5" stroke="#B9BEC7" stroke-dasharray="2 2"/><g filter="url(#filter0_d)"><path d="M93 27a3 3 0 013-3h256a3 3 0 013 3v26a3 3 0 01-3 3H96a3 3 0 01-3-3V27z" fill="#fff"/></g><path d="M101 35a3 3 0 013-3h36a3 3 0 110 6h-36a3 3 0 01-3-3zM331 35a2 2 0 012-2h12a2 2 0 110 4h-12a2 2 0 01-2-2zM101 46.5a1.5 1.5 0 011.5-1.5h214a1.5 1.5 0 010 3h-214a1.5 1.5 0 01-1.5-1.5z" fill="#E9EBF0"/><rect x="65" y="160" width="16" height="16" rx="8" fill="#F05A47"/><circle opacity=".6" cx="73" cy="168" r="11.5" stroke="#B9BEC7" stroke-dasharray="2 2"/><g filter="url(#filter1_d)"><path d="M93 159a3 3 0 013-3h256a3 3 0 013 3v18a3 3 0 01-3 3H96a3 3 0 01-3-3v-18z" fill="#fff"/></g><path d="M101 168a3 3 0 013-3h146a3 3 0 110 6H104a3 3 0 01-3-3zM331 168a2 2 0 012-2h12a2 2 0 110 4h-12a2 2 0 01-2-2z" fill="#E9EBF0"/><rect x="65" y="68" width="16" height="16" rx="8" fill="#FBCC43"/><circle opacity=".6" cx="73" cy="76" r="11.5" stroke="#B9BEC7" stroke-dasharray="2 2"/><g filter="url(#filter2_d)"><path d="M93 67a3 3 0 013-3h256a3 3 0 013 3v26a3 3 0 01-3 3H96a3 3 0 01-3-3V67z" fill="#fff"/><path d="M331 74a2 2 0 012-2h12a2 2 0 110 4h-12a2 2 0 01-2-2zM101 75a3 3 0 013-3h86a3 3 0 110 6h-86a3 3 0 01-3-3zM101 86.5a1.5 1.5 0 011.5-1.5h24a1.5 1.5 0 010 3h-24a1.5 1.5 0 01-1.5-1.5zM132 86.5a1.5 1.5 0 011.5-1.5h144a1.5 1.5 0 010 3h-144a1.5 1.5 0 01-1.5-1.5z" fill="#E9EBF0"/><path d="M93 103a3 3 0 013-3h256a3 3 0 013 3v16a3 3 0 01-3 3H96a3 3 0 01-3-3v-16z" fill="#fff"/><path d="M331 111a2 2 0 012-2h12a2 2 0 110 4h-12a2 2 0 01-2-2zM101 111a3 3 0 013-3h56a3 3 0 110 6h-56a3 3 0 01-3-3z" fill="#E9EBF0"/></g><defs><filter id="filter0_d" x="83" y="14" width="282" height="52" filterUnits="userSpaceOnUse" color-interpolation-filters="sRGB"><feFlood flood-opacity="0" result="BackgroundImageFix"/><feColorMatrix in="SourceAlpha" values="0 0 0 0 0 0 0 0 0 0 0 0 0 0 0 0 0 0 127 0"/><feOffset/><feGaussianBlur stdDeviation="5"/><feColorMatrix values="0 0 0 0 0 0 0 0 0 0 0 0 0 0 0 0 0 0 0.08 0"/><feBlend in2="BackgroundImageFix" result="effect1_dropShadow"/><feBlend in="SourceGraphic" in2="effect1_dropShadow" result="shape"/></filter><filter id="filter1_d" x="83" y="146" width="282" height="44" filterUnits="userSpaceOnUse" color-interpolation-filters="sRGB"><feFlood flood-opacity="0" result="BackgroundImageFix"/><feColorMatrix in="SourceAlpha" values="0 0 0 0 0 0 0 0 0 0 0 0 0 0 0 0 0 0 127 0"/><feOffset/><feGaussianBlur stdDeviation="5"/><feColorMatrix values="0 0 0 0 0 0 0 0 0 0 0 0 0 0 0 0 0 0 0.08 0"/><feBlend in2="BackgroundImageFix" result="effect1_dropShadow"/><feBlend in="SourceGraphic" in2="effect1_dropShadow" result="shape"/></filter><filter id="filter2_d" x="83" y="54" width="282" height="78" filterUnits="userSpaceOnUse" color-interpolation-filters="sRGB"><feFlood flood-opacity="0" result="BackgroundImageFix"/><feColorMatrix in="SourceAlpha" values="0 0 0 0 0 0 0 0 0 0 0 0 0 0 0 0 0 0 127 0"/><feOffset/><feGaussianBlur stdDeviation="5"/><feColorMatrix values="0 0 0 0 0 0 0 0 0 0 0 0 0 0 0 0 0 0 0.08 0"/><feBlend in2="BackgroundImageFix" result="effect1_dropShadow"/><feBlend in="SourceGraphic" in2="effect1_dropShadow" result="shape"/></filter></defs></svg>