<svg width="415" height="180" viewBox="0 0 415 180" fill="none" xmlns="http://www.w3.org/2000/svg">
  <g opacity="0.5">
    <rect y="48.9999" width="1.99999" height="415" transform="rotate(-90 0 48.9999)" fill="#E9EBF0"/>
    <rect y="6.99988" width="1.99999" height="415" transform="rotate(-90 0 6.99988)" fill="#E9EBF0"/>
    <rect x="40" width="1.99999" height="180" fill="#E9EBF0"/>
    <rect x="72" width="2" height="7" fill="#E9EBF0"/>
    <rect x="104" width="2" height="7" fill="#E9EBF0"/>
    <rect x="136" width="2" height="7" fill="#E9EBF0"/>
    <rect x="168" width="2" height="7" fill="#E9EBF0"/>
    <rect x="200" width="2" height="7" fill="#E9EBF0"/>
    <rect x="232" width="2" height="7" fill="#E9EBF0"/>
    <rect x="264" width="2" height="7" fill="#E9EBF0"/>
    <rect x="296" width="2" height="7" fill="#E9EBF0"/>
    <rect x="328" width="2" height="7" fill="#E9EBF0"/>
    <rect x="360" width="2" height="7" fill="#E9EBF0"/>
    <rect x="392" width="2" height="7" fill="#E9EBF0"/>
    <rect x="72" y="173" width="2" height="7" fill="#E9EBF0"/>
    <rect x="104" y="173" width="2" height="7" fill="#E9EBF0"/>
    <rect x="136" y="173" width="2" height="7" fill="#E9EBF0"/>
    <rect x="168" y="173" width="2" height="7" fill="#E9EBF0"/>
    <rect x="200" y="173" width="2" height="7" fill="#E9EBF0"/>
    <rect x="232" y="173" width="2" height="7" fill="#E9EBF0"/>
    <rect x="264" y="173" width="2" height="7" fill="#E9EBF0"/>
    <rect x="296" y="173" width="2" height="7" fill="#E9EBF0"/>
    <rect x="328" y="173" width="2" height="7" fill="#E9EBF0"/>
    <rect x="360" y="173" width="2" height="7" fill="#E9EBF0"/>
    <rect x="392" y="173" width="2" height="7" fill="#E9EBF0"/>
    <rect y="90.9999" width="1.99999" height="415" transform="rotate(-90 0 90.9999)" fill="#E9EBF0"/>
    <rect y="133" width="1.99999" height="415" transform="rotate(-90 0 133)" fill="#E9EBF0"/>
    <rect y="175" width="1.99999" height="415" transform="rotate(-90 0 175)" fill="#E9EBF0"/>
  </g>
  <rect x="12" y="61" width="16" height="16" rx="8" fill="#FBCC43"/>
  <circle opacity="0.6" cx="20" cy="69" r="11.5" stroke="#B9BEC7" stroke-dasharray="2 2"/>
  <rect x="12" y="19" width="16" height="16" rx="8" fill="#5595EF"/>
  <circle opacity="0.6" cx="20" cy="27" r="11.5" stroke="#B9BEC7" stroke-dasharray="2 2"/>
  <rect x="12" y="103" width="16" height="16" rx="8" fill="#F05A47"/>
  <circle opacity="0.6" cx="20" cy="111" r="11.5" stroke="#B9BEC7" stroke-dasharray="2 2"/>
  <rect x="12" y="145" width="16" height="16" rx="8" fill="#7DC560"/>
  <circle opacity="0.6" cx="20" cy="153" r="11.5" stroke="#B9BEC7" stroke-dasharray="2 2"/>
  <g filter="url(#filter0_d)">
    <path d="M76 56C76 54.3431 77.3431 53 79 53H195C196.657 53 198 54.3431 198 56V82C198 83.6569 196.657 85 195 85H79C77.3431 85 76 83.6569 76 82V56Z" fill="white"/>
  </g>
  <path d="M76 56C76 54.3431 77.3431 53 79 53V85C77.3431 85 76 83.6569 76 82V56Z" fill="#5595EF"/>
  <rect x="87" y="61" width="103" height="6" rx="3" fill="#E9EBF0"/>
  <rect x="87" y="74" width="40" height="3" rx="1.5" fill="#E9EBF0"/>
  <g filter="url(#filter1_d)">
    <path d="M204 140C204 138.343 205.343 137 207 137H323C324.657 137 326 138.343 326 140V166C326 167.657 324.657 169 323 169H207C205.343 169 204 167.657 204 166V140Z" fill="white"/>
  </g>
  <path d="M204 140C204 138.343 205.343 137 207 137V169C205.343 169 204 167.657 204 166V140Z" fill="#B9BEC7"/>
  <rect x="215" y="145" width="103" height="6" rx="3" fill="#E9EBF0"/>
  <rect x="215" y="158" width="40" height="3" rx="1.5" fill="#E9EBF0"/>
  <g filter="url(#filter2_d)">
    <path d="M108 140C108 138.343 109.343 137 111 137H163C164.657 137 166 138.343 166 140V166C166 167.657 164.657 169 163 169H111C109.343 169 108 167.657 108 166V140Z" fill="white"/>
  </g>
  <path d="M108 140C108 138.343 109.343 137 111 137V169C109.343 169 108 167.657 108 166V140Z" fill="#F05A47"/>
  <rect x="119" y="145" width="39" height="6" rx="3" fill="#E9EBF0"/>
  <rect x="119" y="158" width="30" height="3" rx="1.5" fill="#E9EBF0"/>
  <g filter="url(#filter3_d)">
    <path d="M332 56C332 54.3431 333.343 53 335 53H387C388.657 53 390 54.3431 390 56V82C390 83.6569 388.657 85 387 85H335C333.343 85 332 83.6569 332 82V56Z" fill="white"/>
  </g>
  <path d="M332 56C332 54.3431 333.343 53 335 53V85C333.343 85 332 83.6569 332 82V56Z" fill="#FBCC43"/>
  <rect x="343" y="61" width="39" height="6" rx="3" fill="#E9EBF0"/>
  <rect x="343" y="74" width="30" height="3" rx="1.5" fill="#E9EBF0"/>
  <g filter="url(#filter4_d)">
    <path d="M300 98C300 96.3431 301.343 95 303 95H355C356.657 95 358 96.3431 358 98V124C358 125.657 356.657 127 355 127H303C301.343 127 300 125.657 300 124V98Z" fill="white"/>
  </g>
  <path d="M300 98C300 96.3431 301.343 95 303 95V127C301.343 127 300 125.657 300 124V98Z" fill="#5595EF"/>
  <rect x="311" y="103" width="39" height="6" rx="3" fill="#E9EBF0"/>
  <rect x="311" y="116" width="30" height="3" rx="1.5" fill="#E9EBF0"/>
  <g filter="url(#filter5_d)">
    <path d="M172 98C172 96.3431 173.343 95 175 95H259C260.657 95 262 96.3431 262 98V124C262 125.657 260.657 127 259 127H175C173.343 127 172 125.657 172 124V98Z" fill="white"/>
  </g>
  <path d="M172 98C172 96.3431 173.343 95 175 95V127C173.343 127 172 125.657 172 124V98Z" fill="#FBCC43"/>
  <rect x="183" y="103" width="71" height="6" rx="3" fill="#E9EBF0"/>
  <rect x="183" y="116" width="39" height="3" rx="1.5" fill="#E9EBF0"/>
  <g filter="url(#filter6_d)">
    <path d="M268 14C268 12.3431 269.343 11 271 11H355C356.657 11 358 12.3431 358 14V40C358 41.6569 356.657 43 355 43H271C269.343 43 268 41.6569 268 40V14Z" fill="white"/>
  </g>
  <path d="M268 14C268 12.3431 269.343 11 271 11V43C269.343 43 268 41.6569 268 40V14Z" fill="#F05A47"/>
  <rect x="279" y="19" width="71" height="6" rx="3" fill="#E9EBF0"/>
  <rect x="279" y="32" width="39" height="3" rx="1.5" fill="#E9EBF0"/>
  <g filter="url(#filter7_d)">
    <rect x="140" y="11" width="90" height="32" rx="3" fill="white"/>
  </g>
  <path d="M140 14C140 12.3431 141.343 11 143 11V43C141.343 43 140 41.6569 140 40V14Z" fill="#B9BEC7"/>
  <rect x="151" y="19" width="71" height="6" rx="3" fill="#E9EBF0"/>
  <rect x="151" y="32" width="37" height="3" rx="1.5" fill="#E9EBF0"/>
  <g filter="url(#filter8_d)">
    <rect x="204" y="53" width="90" height="32" rx="3" fill="white"/>
  </g>
  <path d="M204 56C204 54.3431 205.343 53 207 53V85C205.343 85 204 83.6569 204 82V56Z" fill="#7DC560"/>
  <rect x="215" y="61" width="71" height="6" rx="3" fill="#E9EBF0"/>
  <rect x="215" y="74" width="37" height="3" rx="1.5" fill="#E9EBF0"/>
  <defs>
    <filter id="filter0_d" x="66" y="43" width="142" height="52" filterUnits="userSpaceOnUse" color-interpolation-filters="sRGB">
      <feFlood flood-opacity="0" result="BackgroundImageFix"/>
      <feColorMatrix in="SourceAlpha" type="matrix" values="0 0 0 0 0 0 0 0 0 0 0 0 0 0 0 0 0 0 127 0"/>
      <feOffset/>
      <feGaussianBlur stdDeviation="5"/>
      <feColorMatrix type="matrix" values="0 0 0 0 0 0 0 0 0 0 0 0 0 0 0 0 0 0 0.08 0"/>
      <feBlend mode="normal" in2="BackgroundImageFix" result="effect1_dropShadow"/>
      <feBlend mode="normal" in="SourceGraphic" in2="effect1_dropShadow" result="shape"/>
    </filter>
    <filter id="filter1_d" x="194" y="127" width="142" height="52" filterUnits="userSpaceOnUse" color-interpolation-filters="sRGB">
      <feFlood flood-opacity="0" result="BackgroundImageFix"/>
      <feColorMatrix in="SourceAlpha" type="matrix" values="0 0 0 0 0 0 0 0 0 0 0 0 0 0 0 0 0 0 127 0"/>
      <feOffset/>
      <feGaussianBlur stdDeviation="5"/>
      <feColorMatrix type="matrix" values="0 0 0 0 0 0 0 0 0 0 0 0 0 0 0 0 0 0 0.08 0"/>
      <feBlend mode="normal" in2="BackgroundImageFix" result="effect1_dropShadow"/>
      <feBlend mode="normal" in="SourceGraphic" in2="effect1_dropShadow" result="shape"/>
    </filter>
    <filter id="filter2_d" x="98" y="127" width="78" height="52" filterUnits="userSpaceOnUse" color-interpolation-filters="sRGB">
      <feFlood flood-opacity="0" result="BackgroundImageFix"/>
      <feColorMatrix in="SourceAlpha" type="matrix" values="0 0 0 0 0 0 0 0 0 0 0 0 0 0 0 0 0 0 127 0"/>
      <feOffset/>
      <feGaussianBlur stdDeviation="5"/>
      <feColorMatrix type="matrix" values="0 0 0 0 0 0 0 0 0 0 0 0 0 0 0 0 0 0 0.08 0"/>
      <feBlend mode="normal" in2="BackgroundImageFix" result="effect1_dropShadow"/>
      <feBlend mode="normal" in="SourceGraphic" in2="effect1_dropShadow" result="shape"/>
    </filter>
    <filter id="filter3_d" x="322" y="43" width="78" height="52" filterUnits="userSpaceOnUse" color-interpolation-filters="sRGB">
      <feFlood flood-opacity="0" result="BackgroundImageFix"/>
      <feColorMatrix in="SourceAlpha" type="matrix" values="0 0 0 0 0 0 0 0 0 0 0 0 0 0 0 0 0 0 127 0"/>
      <feOffset/>
      <feGaussianBlur stdDeviation="5"/>
      <feColorMatrix type="matrix" values="0 0 0 0 0 0 0 0 0 0 0 0 0 0 0 0 0 0 0.08 0"/>
      <feBlend mode="normal" in2="BackgroundImageFix" result="effect1_dropShadow"/>
      <feBlend mode="normal" in="SourceGraphic" in2="effect1_dropShadow" result="shape"/>
    </filter>
    <filter id="filter4_d" x="290" y="85" width="78" height="52" filterUnits="userSpaceOnUse" color-interpolation-filters="sRGB">
      <feFlood flood-opacity="0" result="BackgroundImageFix"/>
      <feColorMatrix in="SourceAlpha" type="matrix" values="0 0 0 0 0 0 0 0 0 0 0 0 0 0 0 0 0 0 127 0"/>
      <feOffset/>
      <feGaussianBlur stdDeviation="5"/>
      <feColorMatrix type="matrix" values="0 0 0 0 0 0 0 0 0 0 0 0 0 0 0 0 0 0 0.08 0"/>
      <feBlend mode="normal" in2="BackgroundImageFix" result="effect1_dropShadow"/>
      <feBlend mode="normal" in="SourceGraphic" in2="effect1_dropShadow" result="shape"/>
    </filter>
    <filter id="filter5_d" x="162" y="85" width="110" height="52" filterUnits="userSpaceOnUse" color-interpolation-filters="sRGB">
      <feFlood flood-opacity="0" result="BackgroundImageFix"/>
      <feColorMatrix in="SourceAlpha" type="matrix" values="0 0 0 0 0 0 0 0 0 0 0 0 0 0 0 0 0 0 127 0"/>
      <feOffset/>
      <feGaussianBlur stdDeviation="5"/>
      <feColorMatrix type="matrix" values="0 0 0 0 0 0 0 0 0 0 0 0 0 0 0 0 0 0 0.08 0"/>
      <feBlend mode="normal" in2="BackgroundImageFix" result="effect1_dropShadow"/>
      <feBlend mode="normal" in="SourceGraphic" in2="effect1_dropShadow" result="shape"/>
    </filter>
    <filter id="filter6_d" x="258" y="1" width="110" height="52" filterUnits="userSpaceOnUse" color-interpolation-filters="sRGB">
      <feFlood flood-opacity="0" result="BackgroundImageFix"/>
      <feColorMatrix in="SourceAlpha" type="matrix" values="0 0 0 0 0 0 0 0 0 0 0 0 0 0 0 0 0 0 127 0"/>
      <feOffset/>
      <feGaussianBlur stdDeviation="5"/>
      <feColorMatrix type="matrix" values="0 0 0 0 0 0 0 0 0 0 0 0 0 0 0 0 0 0 0.08 0"/>
      <feBlend mode="normal" in2="BackgroundImageFix" result="effect1_dropShadow"/>
      <feBlend mode="normal" in="SourceGraphic" in2="effect1_dropShadow" result="shape"/>
    </filter>
    <filter id="filter7_d" x="130" y="1" width="110" height="52" filterUnits="userSpaceOnUse" color-interpolation-filters="sRGB">
      <feFlood flood-opacity="0" result="BackgroundImageFix"/>
      <feColorMatrix in="SourceAlpha" type="matrix" values="0 0 0 0 0 0 0 0 0 0 0 0 0 0 0 0 0 0 127 0"/>
      <feOffset/>
      <feGaussianBlur stdDeviation="5"/>
      <feColorMatrix type="matrix" values="0 0 0 0 0 0 0 0 0 0 0 0 0 0 0 0 0 0 0.08 0"/>
      <feBlend mode="normal" in2="BackgroundImageFix" result="effect1_dropShadow"/>
      <feBlend mode="normal" in="SourceGraphic" in2="effect1_dropShadow" result="shape"/>
    </filter>
    <filter id="filter8_d" x="194" y="43" width="110" height="52" filterUnits="userSpaceOnUse" color-interpolation-filters="sRGB">
      <feFlood flood-opacity="0" result="BackgroundImageFix"/>
      <feColorMatrix in="SourceAlpha" type="matrix" values="0 0 0 0 0 0 0 0 0 0 0 0 0 0 0 0 0 0 127 0"/>
      <feOffset/>
      <feGaussianBlur stdDeviation="5"/>
      <feColorMatrix type="matrix" values="0 0 0 0 0 0 0 0 0 0 0 0 0 0 0 0 0 0 0.08 0"/>
      <feBlend mode="normal" in2="BackgroundImageFix" result="effect1_dropShadow"/>
      <feBlend mode="normal" in="SourceGraphic" in2="effect1_dropShadow" result="shape"/>
    </filter>
  </defs>
</svg>
