<svg width="132" height="132" viewBox="0 0 132 132" fill="none" xmlns="http://www.w3.org/2000/svg">
<path d="M48.093 101.251C41.8624 113.391 26.9763 118.179 14.8442 111.944C2.71214 105.709 -2.07205 90.8138 4.15844 78.6739L28.4741 31.2555C34.7045 19.1155 49.5906 14.3279 61.7227 20.5626C73.8553 26.7972 78.6389 41.6927 72.4085 53.8327L48.093 101.251Z" fill="#2A8BEA"/>
<path d="M75.135 42.6417C75.1605 28.9661 64.102 17.8591 50.435 17.8335C36.768 17.808 25.6681 28.8736 25.6426 42.5493C25.6171 56.225 36.6756 67.3321 50.3426 67.3576C64.0095 67.3831 75.1095 56.3174 75.135 42.6417Z" fill="#48CAED"/>
<path d="M83.8911 31.2555C90.1217 19.1155 105.008 14.3279 117.14 20.5626C129.272 26.7972 134.056 41.6927 127.826 53.8327L103.51 101.251C97.2794 113.391 82.3934 118.179 70.2612 111.944C58.1288 105.709 53.345 90.8138 59.5755 78.6739L83.8911 31.2555Z" fill="#F73C5C"/>
<path d="M106.341 89.9572C106.366 76.2816 95.3077 65.1745 81.6407 65.149C67.9737 65.1234 56.8739 76.189 56.8482 89.8648C56.8227 103.54 67.8813 114.647 81.5482 114.673C95.2152 114.699 106.315 103.633 106.341 89.9572Z" fill="#FFA4B3"/>
</svg>
