<svg xmlns="http://www.w3.org/2000/svg" data-name="Layer 1" width="674.76197" height="646.93748" viewBox="0 0 674.76197 646.93748" xmlns:xlink="http://www.w3.org/1999/xlink"><path d="M234.35917,401.55488a287.86052,287.86052,0,0,0,68.09,186.34c1.6,1.9,3.23,3.77,4.88995,5.63a290.58834,290.58834,0,0,0,67.49,55.99q8.67,5.205,17.72,9.81c.61.31,1.23.62006,1.84.92.73.37,1.47.73,2.21,1.09a286.15952,286.15952,0,0,0,47.52,18.22q2.55.72,5.11,1.4a288.58837,288.58837,0,0,0,65.84,9.49006c1.16.03,2.3.05,3.4.06994.39.01.77.02,1.15.02,1.25.01,2.49.02,3.74.02a289.27116,289.27116,0,0,0,69.54-8.43q3.42-.84,6.81-1.77a285.47262,285.47262,0,0,0,34.97-12.03q9-3.75,17.68-8.09c1.31-.66,2.62-1.32,3.91-2,.55005-.27,1.09-.56,1.63-.84a290.458,290.458,0,0,0,81.65-64.06c1.6-1.79,3.17-3.61,4.72-5.44,42.48005-50.31,164.1609-125.088,164.1609-196.088,0-95.48-142.37086-170.392-213.75086-223.012-1.64-1.21-3.29-2.41-4.96-3.58q-.49494-.345-.99-.69a286.75277,286.75277,0,0,0-97.1-43.85c-1.98-.49-3.96-.95-5.96-1.38a291.7978,291.7978,0,0,0-114.68-2.01c-1.99.37-3.98.75-5.96,1.16a287.28037,287.28037,0,0,0-97.1,39.43c-.66.42-1.32.84-1.98,1.28-1.33.86-2.66,1.74-3.97,2.63A288.68582,288.68582,0,0,0,234.35917,401.55488Z" transform="translate(-234.35917 -112.55488)" fill="#f2f2f2"/><path d="M596.52915,548.76484a2.34065,2.34065,0,0,0,2.12731,2.504l90.07271,7.996.99.09v-394.14q-.49494-.345-.99-.69a288.32258,288.32258,0,0,0-62.01-32.94l-4.72,65.1-.43,5.96-4.67,64.56-1.44,19.86005-18.93,261.7Z" transform="translate(-234.35917 -112.55488)" fill="#e6e6e6"/><path d="M367.92918,157.87489c-.66.42-1.32.84-1.98,1.28v400.2l1.98-.18,91.37-8.11-.17-2.3-18.93-261.7-1.44-19.86-4.67005-64.56-.43-5.96-4.95-68.27A287.68677,287.68677,0,0,0,367.92918,157.87489Z" transform="translate(-234.35917 -112.55488)" fill="#e6e6e6"/><path d="M365.9492,159.15486c-1.33.86-2.66,1.74-3.97,2.63v403.03c0,10.07,5.97,18.51,13.95,20.66a15.24855,15.24855,0,0,0,4,.53h296.8a15.11793,15.11793,0,0,0,3.99-.53,17.05992,17.05992,0,0,0,7.78-4.66,22.91866,22.91866,0,0,0,6.18-16v-396.02c-1.64-1.21-3.29-2.41-4.96-3.58q-.49494-.345-.99-.69v400.29a16.10766,16.10766,0,0,1-.46,3.85c-1.41,5.95-6.06,10.31-11.54,10.31h-296.8c-6.62,0-12-6.35-12-14.16v-406.94C367.26914,158.29487,366.60917,158.71485,365.9492,159.15486Z" transform="translate(-234.35917 -112.55488)" fill="#e6e6e6"/><rect x="130.5926" y="84.13399" width="326.75223" height="5.95901" fill="#e6e6e6"/><path d="M591.62919,120.67488c-1.98-.49-3.96-.95-5.96-1.38v161.81h5.96Z" transform="translate(-234.35917 -112.55488)" fill="#e6e6e6"/><path d="M470.98918,117.28486c-1.99.37-3.98.75-5.96,1.16v162.66h5.96Z" transform="translate(-234.35917 -112.55488)" fill="#e6e6e6"/><path d="M300.8892,575.57484a26.71127,26.71127,0,0,0,1.93,9.98,25.54045,25.54045,0,0,0,1.75,3.56,27.096,27.096,0,0,0,3.02,4.18,26.7604,26.7604,0,0,0,20.12,9.11h391.31a26.82,26.82,0,0,0,0-53.64h-391.31A26.84644,26.84644,0,0,0,300.8892,575.57484Z" transform="translate(-234.35917 -112.55488)" fill="#e6e6e6"/><rect x="364.95177" y="267.20379" width="324.76589" height="19.86336" transform="translate(820.31026 441.71605) rotate(-180)" fill="#e6e6e6"/><path d="M513.43036,261.24478h27.8087a0,0,0,0,1,0,0v0a10.92484,10.92484,0,0,1-10.92484,10.92484h-5.959a10.92484,10.92484,0,0,1-10.92484-10.92484v0A0,0,0,0,1,513.43036,261.24478Z" transform="translate(820.31026 420.85952) rotate(-180)" fill="#e6e6e6"/><path d="M811.91051,473.30685H728.94957a4.02417,4.02417,0,0,1-4.01953-4.01953V373.32638c0-2.00781,26.8501-18.61035,38.394-25.65527a13.4641,13.4641,0,0,1,14.21729.00293c11.53857,7.042,38.38867,23.64453,38.38867,25.65234v95.96094A4.02417,4.02417,0,0,1,811.91051,473.30685Zm3.03613-99.88135Z" transform="translate(-234.35917 -112.55488)" fill="#ccc"/><path d="M820.86,357.06686l-15.26-31.11a3.27873,3.27873,0,0,0-2.48-1.8s0-.01-.01,0a3.32661,3.32661,0,0,0-1.09.03,3.61367,3.61367,0,0,0-.82.28l-50.25,24.64-.07.04a3.28716,3.28716,0,0,0-1.78,2.77,3.211,3.211,0,0,0,.33,1.59l8.29,16.9,2.89,5.9,2.46,5h15.81l10.2-5,30.26-14.84A3.29179,3.29179,0,0,0,820.86,357.06686Z" transform="translate(-234.35917 -112.55488)" fill="#fff"/><path d="M820.86,357.06686l-15.26-31.11a3.27873,3.27873,0,0,0-2.48-1.8s0-.01-.01,0a3.32661,3.32661,0,0,0-1.09.03,3.61367,3.61367,0,0,0-.82.28l-50.25,24.64-.07.04a3.28716,3.28716,0,0,0-1.78,2.77,3.211,3.211,0,0,0,.33,1.59l8.29,16.9,2.89,5.9,2.46,5h15.81l10.2-5,30.26-14.84A3.29179,3.29179,0,0,0,820.86,357.06686Zm-4.58,2.52c-5.36,2.73-19.65,9.91-33.54,16.72-.18.09-.37.18-.55.27-1.43.71-2.1,1.03-2.35,1.15.23-.13.73-.39.81-.44-.03-.01-.47.19-1.83.83a13.57,13.57,0,0,1-14.43-1.81,13.3095,13.3095,0,0,1-3.45-4.37l-1.29-2.64-7.35-14.98-.88-1.79a1.07568,1.07568,0,0,1,.5-1.44l.15-.07,50.1-24.58a1.0727,1.0727,0,0,1,1.44.5l1.25,2.56,12.78,26.03A3.071,3.071,0,0,1,816.28,359.58682Z" transform="translate(-234.35917 -112.55488)" fill="#6c63ff"/><path d="M767.31424,365.713l38.28541-18.77785a1.83216,1.83216,0,0,0,1.0148-1.8433l-2.178-19.3964a1.81616,1.81616,0,0,0-2.01888-1.59814,1.83836,1.83836,0,0,0-.59542.17446L750.43068,349.3653l-.00229.00113a1.81724,1.81724,0,0,0-.39291,3.01644l.07083-.082-.07083.082,15.284,13.08069A1.82709,1.82709,0,0,0,767.31424,365.713Z" transform="translate(-234.35917 -112.55488)" fill="#6c63ff"/><ellipse cx="785.83931" cy="356.62698" rx="4.55649" ry="4.53102" transform="translate(-311.10751 269.93278) rotate(-26.12657)" fill="#3f3d56"/><path d="M760.10145,368.9667a10.13238,10.13238,0,0,1-15.27538-2.83823l-44.85185,16.08961-48.06557-11.5559,8.70053-20.24445,36.31051,11.71375,52.34274-10.24913a10.18731,10.18731,0,0,1,10.839,17.08435Z" transform="translate(-234.35917 -112.55488)" fill="#ffb6b6"/><path d="M620.63156,361.18717c8.73876,2.46285,56.25349,19.447,68.85864,19.53358a7.95987,7.95987,0,0,0,7.54018,6.19483l3.106-26.01477c-3.892-4.48206-7.08922-2.13949-8.598-.362l-15.13475-8.558-55.744-26.18538a15.00753,15.00753,0,0,0-15.12347,1.38553l0,0a15.02656,15.02656,0,0,0-.98115,23.63125C609.97782,355.47084,616.01138,359.88505,620.63156,361.18717Z" transform="translate(-234.35917 -112.55488)" fill="#6c63ff"/><path d="M481.29789,531.0509c.79708,5.87173,4.78905,11.17221,9.92347,14.63282a26.23072,26.23072,0,0,0,3.85913,2.15872,33.56917,33.56917,0,0,0,4.5632,1.67381c6.84151,1.99931,14.2343,2.08566,21.42779,2.12552q10.90986.06975,21.81306.1395c5.73224.0332,11.65043.0332,16.9443-2.16537a2.44578,2.44578,0,0,0,.23246-.09965c5.20087-2.24507,9.63121-7.18024,9.505-12.82612a11.57008,11.57008,0,0,0-1.634-5.63923,16.51253,16.51253,0,0,0-2.41774-3.16171c-2.88273-2.989-6.88136-5.33367-10.62754-7.22008-6.17725-3.1019-13.15823-7.12709-14.96493-13.5036a11.4448,11.4448,0,0,1-.38526-2.05246c-.42507-4.38385,1.707-8.41568,4.42374-12.02239.2657-.35871.54466-.71738.83027-1.076.61108-.76387,1.24209-1.51445,1.86646-2.23182.26571-.30551.53137-.61772.80373-.92988,2.51073-2.9093,5.04142-6.01785,6.36321-9.49175a13.73235,13.73235,0,0,0,.93658-4.55655c.1461-5.63924-6.15735-11.31833-10.92646-8.65479q-3.50711-.33878-7.01418-.69747c-2.86944-.28561-5.72558-.57122-8.58838-.86348h-.00665c-.64431-.05315-1.27529-.11955-1.90631-.186q-8.93714-.88674-17.86093-1.78676c-2.64359-.25905-5.75214-.3587-7.47249,1.67382-1.87311,2.21851-.90333,5.72558.94983,7.964,1.85321,2.23177,4.42374,3.81262,6.164,6.1241a13.33558,13.33558,0,0,1,2.13212,10.47479,18.80227,18.80227,0,0,1-.83688,3.1617,21.141,21.141,0,0,1-2.67683,5.161c-3.90563,5.47318-9.691,9.246-14.82544,13.58334-5.14106,4.344-9.95,9.85707-10.6541,16.53914-.01994.19261-.03985.39187-.0465.59112A15.209,15.209,0,0,0,481.29789,531.0509Z" transform="translate(-234.35917 -112.55488)" fill="#e6e6e6"/><path d="M523.06958,470.23114A75.51787,75.51787,0,0,0,536.17641,452.883a77.02544,77.02544,0,0,0,7.6759-20.24064,73.98926,73.98926,0,0,0,1.58713-21.8979,76.67452,76.67452,0,0,0-15.88318-41.05732q-.84211-1.08015-1.72458-2.12769c-.65586-.78076-1.77034.3437-1.119,1.119a74.90907,74.90907,0,0,1,16.906,39.55864,74.49225,74.49225,0,0,1-21.66812,60.875c-.72633.71618.39283,1.83508,1.119,1.119Z" transform="translate(-234.35917 -112.55488)" fill="#e6e6e6"/><path d="M530.19416,371.03081a19.17908,19.17908,0,0,1-1.87953-.82c-.03088.04765-.061.09611-.092.14366Z" transform="translate(-234.35917 -112.55488)" fill="#e6e6e6"/><path d="M534.55217,356.32669c-.34692-3.73389-2.16425-7.3888-5.62647-9.12775a8.38422,8.38422,0,0,0-11.02252,2.61926,1.5313,1.5313,0,0,0,.23456,1.81769c.51117.631,1.027,1.25806,1.53925,1.88812.33007.40589.92266.889.83551,1.481-.1261.85632-1.1142.78662-1.89032.66736a1.38762,1.38762,0,0,0-.48316-.07672c-.055-.00843-.11584-.01886-.16278-.02429a1.51025,1.51025,0,0,0-1.5,1.5,1.454,1.454,0,0,0,.053.39141l.00061.00733a19.60913,19.60913,0,0,0,6.00659,10.51477,21.01594,21.01594,0,0,0,4.7154,3.3659,1.64553,1.64553,0,0,0,2.35491-.384,25.28721,25.28721,0,0,0,1.71729-2.78894C533.3734,364.59732,534.94194,360.52194,534.55217,356.32669Z" transform="translate(-234.35917 -112.55488)" fill="#e6e6e6"/><path d="M559.43053,364.29965q-1.94541-.30057-3.89038-.60376a20.87327,20.87327,0,0,1,4.2022-3.21717,1.46953,1.46953,0,0,0,.74292-1.29516c-.31427-2.86646-1.56658-5.432-4.26293-6.75537a7.86,7.86,0,0,0-7.73578.372,17.15714,17.15714,0,0,0-3.52741,3.78033c-1.29138,1.586-2.59161,3.16882-3.78729,4.82922a23.61555,23.61555,0,0,0-4.57819,10.75257,20.98269,20.98269,0,0,0,2.31842,12.56347q.25443,3.31293.50635,6.626a1.52174,1.52174,0,0,0,2.25708,1.29523,34.04344,34.04344,0,0,0,18.85626-26.90094A1.49393,1.49393,0,0,0,559.43053,364.29965Z" transform="translate(-234.35917 -112.55488)" fill="#e6e6e6"/><path d="M542.227,432.9653c.51807.02656,1.03618.03985,1.5476.03321a32.45888,32.45888,0,0,0,23.54-10.32864,31.52552,31.52552,0,0,0,5.79868-9.0799c-.0465-.00665-.08635-.0133-.13285-.01995-2.15207-.33211-4.31079-.67087-6.46286-1.003a21.13217,21.13217,0,0,1,8.80093-6.70862,31.65652,31.65652,0,0,0,.10626-9.06664c-4.86211,7.92416-16.22693,8.56183-23.40716,14.46012a19.36022,19.36022,0,0,0-6.609,11.17886,18.21274,18.21274,0,0,0-.33876,3.28125c-.00664.26567-.00664.52472,0,.78378l-.1594.35867Z" transform="translate(-234.35917 -112.55488)" fill="#e6e6e6"/><path d="M536.4857,431.72982c-1.61487-3.84381-2.86456-8.4552-7.32434-9.76568a7.91161,7.91161,0,0,0-9.60272,4.82367,1.50713,1.50713,0,0,0,.3858,1.45941q.74707.91791,1.49317,1.83661c-.61585.02752-1.23322.03448-1.85395.01318a1.51558,1.51558,0,0,0-1.44647,1.1012,34.25786,34.25786,0,0,0-.9469,6.85333,3.63189,3.63189,0,0,0,.42932,2.46387,29.97413,29.97413,0,0,0,2.18531,2.68341q1.15108,1.41321,2.29931,2.82879-1.11686.04871-2.24164-.00927a1.51235,1.51235,0,0,0-1.44641,1.8988,34.64008,34.64008,0,0,0,10.28266,16.35742,1.52128,1.52128,0,0,0,2.50708-.66186c.08276-.23444.19287-.475.25256-.71552a.91672.91672,0,0,1,.036-.11c-.04022.06488-.09735.15222-.16791.25714a2.785,2.785,0,0,0,.24469-.45453c.13648-.31256.23474-.64978.35047-.97009q.71274-1.973,1.42553-3.94593c.05335-.14758.10187-.30011.16114-.4461a.31483.31483,0,0,0,.13183-.037c.42017-.19275.88459-1.0058,1.17835-1.38141.41028-.52453.80292-1.062,1.16266-1.62262a20.81721,20.81721,0,0,0,2.797-6.86078C539.94524,441.88888,538.598,436.75735,536.4857,431.72982Z" transform="translate(-234.35917 -112.55488)" fill="#e6e6e6"/><path d="M531.49449,462.7872c.1922-.31049.07965-.205,0,0Z" transform="translate(-234.35917 -112.55488)" fill="#e6e6e6"/><path d="M258.23174,741.84677l7.71-12.39,1.54,7.08008c.27,1.24.54,2.5.79,3.75,2.18994-1.87012,4.52-3.6001,6.7998-5.26q10.5-7.62012,20.99024-15.26l-2.18994,12.7c-1.3501,7.82007-2.76026,15.8-6.1001,22.94995-.37012.81006-.77,1.61011-1.2002,2.39014h-32.54a10.48734,10.48734,0,0,1-.54-2.24011.77406.77406,0,0,1-.00977-.15C252.97149,750.56674,255.65166,745.99679,258.23174,741.84677Z" transform="translate(-234.35917 -112.55488)" fill="#f0f0f0"/><path d="M752.62834,739.84677l-7.71-12.39-1.54,7.08008c-.27,1.24-.54,2.5-.79,3.75-2.18994-1.87012-4.52-3.6001-6.79981-5.26q-10.5-7.62012-20.99023-15.26l2.18994,12.7c1.3501,7.82007,2.76025,15.8,6.1001,22.94995.37011.81006.77,1.61011,1.20019,2.39014h32.54a10.48736,10.48736,0,0,0,.54-2.24011.77406.77406,0,0,0,.00977-.15C757.88859,748.56674,755.20841,743.99679,752.62834,739.84677Z" transform="translate(-234.35917 -112.55488)" fill="#f0f0f0"/><path d="M797.62834,739.84677l-7.71-12.39-1.54,7.08008c-.27,1.24-.54,2.5-.79,3.75-2.18994-1.87012-4.52-3.6001-6.79981-5.26q-10.5-7.62012-20.99023-15.26l2.18994,12.7c1.3501,7.82007,2.76025,15.8,6.1001,22.94995.37011.81006.77,1.61011,1.20019,2.39014h32.54a10.48736,10.48736,0,0,0,.54-2.24011.77406.77406,0,0,0,.00977-.15C802.88859,748.56674,800.20841,743.99679,797.62834,739.84677Z" transform="translate(-234.35917 -112.55488)" fill="#f0f0f0"/><path d="M798.43,376.30685h-56a2.5,2.5,0,0,0,0,5h56a2.5,2.5,0,0,0,0-5Z" transform="translate(-234.35917 -112.55488)" fill="#fff"/><circle cx="498.07087" cy="315.25197" r="4" fill="#fff"/><polygon points="415.131 195.663 380.939 192.703 369.128 209.108 355.128 354.108 422.766 359.44 453.073 367.825 415.131 195.663" fill="#3f3d56"/><polygon points="351.254 631.983 364.223 631.982 370.393 581.957 351.252 581.958 351.254 631.983" fill="#ffb6b6"/><path d="M582.30489,740.30341l3.65053-.00015,14.25225-5.79606,7.63877,5.79517h.001a16.27795,16.27795,0,0,1,16.27707,16.27682v.52894l-41.81887.00155Z" transform="translate(-234.35917 -112.55488)" fill="#2f2e41"/><polygon points="401.513 623.81 414.164 626.666 431.202 579.229 412.53 575.014 401.513 623.81" fill="#ffb6b6"/><path d="M633.57809,731.50578l3.5609.804,15.17891-2.51424,6.17459,7.33548.001.00023a16.27794,16.27794,0,0,1,12.29184,19.46249l-.11652.51595-40.792-9.21027Z" transform="translate(-234.35917 -112.55488)" fill="#2f2e41"/><path d="M569.18691,438.71089c-6.0807,18.33936-5.43783,38.24622,1.46159,59.6117l2.9494,120.29311c-4.87592,5.366-5.62148,53.38029,1.88944,69.04741,10.02979,20.9212.80605,23.718,7.89591,37.59768h20.56449l9.50453-62.88068.67724-50.96857c2.73127-6.46674.489-29.225.489-29.225l.78958-47.19124,37.07924,82.66786c-16.79895,14.37891-15.28678,60.82558-15.56413,81.4269l-5.508,24.30943,25.31,2.26264,11.16925-32.96694,12.55779-20.31505c6.39947-35.99579,8.29687-62.42151,2.841-73.21588L646.07138,460.67788Z" transform="translate(-234.35917 -112.55488)" fill="#2f2e41"/><path d="M565.06225,439.6901a13.93406,13.93406,0,0,0,.9,4.3c.06.17.12.33.19.5a14.23169,14.23169,0,0,0,6.22,6.95,13.91737,13.91737,0,0,0,2.59,1.13l7.79,1.25,66.99,10.71,2.69-8.09-5.07-12.68,3.36005-10.9.76-105.62v-.08l-12.17005-19.41-.1-12.27-33.98-.83-3.69,9.36005-7.29,4.36c-16.16,9.66-21.98,27.35-21.63,46.18,5.57,21.57,1.47,45.55-2.68,71.26l-3.39,6.78A14.30348,14.30348,0,0,0,565.06225,439.6901Z" transform="translate(-234.35917 -112.55488)" fill="#6c63ff"/><path d="M565.06225,439.6901a13.93406,13.93406,0,0,0,.9,4.3l6.41,7.45a13.91737,13.91737,0,0,0,2.59,1.13l7.79,1.25-11.26995-21.19,24.76995-54.23Z" transform="translate(-234.35917 -112.55488)" opacity="0.2"/><path d="M635.734,306.9702l-34.19174-2.96009,0,0a61.83989,61.83989,0,0,0-35.78338,49.70047L554.48734,459.66311l72.6378,12.33214,30.30711,8.38439Z" transform="translate(-234.35917 -112.55488)" fill="#3f3d56"/><path d="M594.185,260.30024a31.64654,31.64654,0,0,0,62.71487-8.53553l-.06114-.44921a31.64654,31.64654,0,0,0-62.644,8.98342Z" transform="translate(-234.35917 -112.55488)" fill="#ffb8b8"/><path d="M602.2395,276.60052c-1.62517-3.30125-3.29465-6.84553-2.83794-10.49667s4.03736-7.141,7.55332-6.05593c2.10249.64887,3.69155,2.725,5.88932,2.83127,3.024.14617,4.75773-3.31468,5.699-6.19213l3.83342-11.7191a31.70822,31.70822,0,0,0,26.335,5.951c3.55922-.81376,7.155-2.40036,9.24281-5.39557s2.07526-7.64128-.78838-9.90619c-1.40411-1.11055-3.273-1.5325-4.61484-2.71753a5.17114,5.17114,0,0,1,4.12924-8.99869l-9.6522-1.20636,2.87586-5.20135c-2.07217,1.63354-4.95619,1.85322-7.55306,1.38564s-5.04259-1.53682-7.583-2.24988c-12.19586-3.42314-26.3699,2.52875-32.4656,13.63277a12.35592,12.35592,0,0,0-13.47187,3.89c-2.58387,3.27948-3.28656,7.65591-3.38668,11.8298a51.324,51.324,0,0,0,5.23184,23.77477,19.47737,19.47737,0,0,0,4.39512,6.23455,8.79658,8.79658,0,0,0,7.06107,2.30919" transform="translate(-234.35917 -112.55488)" fill="#2f2e41"/><path d="M628.42467,469.60372,563.53892,457.528l20.8584-112.07519a32.99993,32.99993,0,0,1,64.88575,12.07568ZM568.203,454.32785l57.02148,10.61181,20.126-108.14306a28.99983,28.99983,0,1,0-57.02051-10.61231Z" transform="translate(-234.35917 -112.55488)" fill="#ccc"/><rect x="546.40695" y="447.69705" width="90" height="65.64277" rx="7.70866" transform="translate(833.02192 963.03395) rotate(-167.74886)" fill="#ccc"/><path d="M590.22,457.79684v15.12l.77.17.94.21,25.94,5.75h.02l7.94,1.76h.34a2.01462,2.01462,0,0,0,1.47-.63,1.9922,1.9922,0,0,0,.53-1.36v-21.02a1.93242,1.93242,0,0,0-.8-1.58.68843.68843,0,0,0-.13-.11,2.4936,2.4936,0,0,0-.47-.21.09019.09019,0,0,0-.05-.01.03673.03673,0,0,0-.03-.01,2.17438,2.17438,0,0,0-.52-.07H592.18a1.8827,1.8827,0,0,0-1.14.38A1.97921,1.97921,0,0,0,590.22,457.79684Z" transform="translate(-234.35917 -112.55488)" fill="#fff"/><path d="M590.22,457.79684v15.12l.77.17.94.21a6.79485,6.79485,0,0,1-.22-.89,1.285,1.285,0,0,1-.04-.19,8.07644,8.07644,0,0,1-.11-1.31v-13.11a.6573.6573,0,0,1,.66-.65h33.95a.65735.65735,0,0,1,.66.65v19.32a1.86783,1.86783,0,0,1-1.83,1.85c-.69.01-1.6.02-2.68.03-1.26.02-2.76.04-4.43.05l7.94,1.76h.34a2.01462,2.01462,0,0,0,1.47-.63,1.9922,1.9922,0,0,0,.53-1.36v-21.02a1.93242,1.93242,0,0,0-.8-1.58.68843.68843,0,0,0-.13-.11,2.4936,2.4936,0,0,0-.47-.21.09019.09019,0,0,0-.05-.01.03673.03673,0,0,0-.03-.01,2.17438,2.17438,0,0,0-.52-.07H592.18a1.8827,1.8827,0,0,0-1.14.38A1.97921,1.97921,0,0,0,590.22,457.79684Zm0,13.67v.42l1.45.33a8.07644,8.07644,0,0,1-.11-1.31v-.72C591.12,470.62686,590.67,471.04684,590.22,471.46682Z" transform="translate(-234.35917 -112.55488)" fill="#6c63ff"/><path d="M596.69722,469.22309h25.8686a1.11145,1.11145,0,0,0,1.04513-.73287l3.99523-11.14617a1.10176,1.10176,0,0,0-.67267-1.40975,1.1153,1.1153,0,0,0-.3709-.064l-34.694-.06123H591.867a1.10241,1.10241,0,0,0-1.01981,1.538l.06049-.02575-.06049.02575,4.83019,11.2074A1.10838,1.10838,0,0,0,596.69722,469.22309Z" transform="translate(-234.35917 -112.55488)" fill="#6c63ff"/><ellipse cx="374.85503" cy="356.66821" rx="2.76415" ry="2.74869" fill="#3f3d56"/><path d="M562.70006,466.82681l.63995.14,1.24.27,12.75,2.83,11.66,2.58,1.23.27.77.17.72-.68.16-.15,3.84-3.64,9.41-8.91a1.98524,1.98524,0,0,0,.28-2.56,1.20748,1.20748,0,0,0-.19995-.26l-1-1.06-.02-.02-13.43-14.18a1.9729,1.9729,0,0,0-1.71-.6.3746.3746,0,0,0-.1.01,1.96577,1.96577,0,0,0-.61.23,1.8526,1.8526,0,0,0-.4.29l-24.66,23.35-.02.02a1.91662,1.91662,0,0,0-.52.87c-.03.08-.04.15-.06.21A2.25654,2.25654,0,0,0,562.70006,466.82681Z" transform="translate(-234.35917 -112.55488)" fill="#fff"/><path d="M562.70006,466.82681l.63995.14,1.24.27-.42-.44a.64775.64775,0,0,1-.12-.7.61733.61733,0,0,1,.15-.22l24.66-23.35a.64062.64062,0,0,1,.92.03l1.2,1.26,11.35,11.99.02.02.72.76a1.78542,1.78542,0,0,1,.36.56,1.8641,1.8641,0,0,1-.42,2.03c-1.51,1.47-4.47,4.34-8.03,7.74q-1.635,1.59-3.41,3.27c-.44.44-.89.86-1.34,1.28-.12.12-.24.24-.36.34-.29.29-.58.56-.87.84l1.23.27.77.17.72-.68.16-.15,3.84-3.64,9.41-8.91a1.98524,1.98524,0,0,0,.28-2.56,1.20748,1.20748,0,0,0-.19995-.26l-1-1.06-.02-.02-13.43-14.18a1.9729,1.9729,0,0,0-1.71-.6.3746.3746,0,0,0-.1.01,1.96577,1.96577,0,0,0-.61.23,1.8526,1.8526,0,0,0-.4.29l-24.66,23.35-.02.02a1.91662,1.91662,0,0,0-.52.87c-.03.08-.04.15-.06.21A2.25654,2.25654,0,0,0,562.70006,466.82681Z" transform="translate(-234.35917 -112.55488)" fill="#6c63ff"/><path d="M562.67,465.95681v.05a1.07813,1.07813,0,0,0,.3.7,1.183,1.183,0,0,0,.37.26l1.24.27,12.75,2.83.89-.84,4.61-4.37,4.02-3.8,3.37-3.2.61-.57,1.56-1.48,2.13995-2.03a1.10527,1.10527,0,0,0,.26-1.25l-3.82-8.71-.94-2.13a1.09989,1.09989,0,0,0-.99-.66.3746.3746,0,0,0-.1.01.83939.83939,0,0,0-.37.09.94357.94357,0,0,0-.24.13995c-.03.02-.05005.05-.08.07l-24.98,23.57-.02.02-.23.22a1.39955,1.39955,0,0,0-.33.64A.46727.46727,0,0,0,562.67,465.95681Z" transform="translate(-234.35917 -112.55488)" fill="#6c63ff"/><ellipse cx="584.83887" cy="462.95873" rx="2.76415" ry="2.74869" transform="translate(-392.49649 416.38627) rotate(-43.44018)" fill="#3f3d56"/><path d="M559.91,466.20681l2.79.62.63995.14,1.24.27,12.75,2.83,11.66,2.58,1.23.27.77.17.94.21,25.94,5.75h.02l7.94,1.76,3.75.83,8.86-18.03-.9-.44-8.51,17.32-1.38995-.31-5.32-1.18-30.45-6.74-.2-.04-1.45-.33-.36-.08-11.64-2.58-14.18-3.13-1.31-.3-.04-.01-1.74-.38.98-19.58-1-.04Z" transform="translate(-234.35917 -112.55488)" fill="#ccc"/><path d="M909.12114,758.30236a1.18647,1.18647,0,0,1-1.19006,1.19h-672.29a1.19,1.19,0,1,1,0-2.38h672.29A1.18651,1.18651,0,0,1,909.12114,758.30236Z" transform="translate(-234.35917 -112.55488)" fill="#ccc"/><path d="M632.69742,492.1612a10.1324,10.1324,0,0,1-2.19967-15.38032l-29.59746-37.34373-4.43442-49.2359,21.96417,1.764.52287,38.14959,26.46149,46.3098a10.18731,10.18731,0,0,1-12.717,15.73651Z" transform="translate(-234.35917 -112.55488)" fill="#ffb6b6"/><path d="M595.43286,357.53682c.46337,9.06735-.42126,59.5186,3.53077,71.4885a7.95989,7.95989,0,0,0-3.45591,9.12617l25.64059-5.3829c3.00076-5.12174-.24181-7.40108-2.40869-8.26163l3.26425-17.0776,6.9683-61.19236a15.00751,15.00751,0,0,0-6.15267-13.88466l0,0a15.02657,15.02657,0,0,0-22.7024,6.63323C597.439,345.614,595.18788,352.74291,595.43286,357.53682Z" transform="translate(-234.35917 -112.55488)" fill="#6c63ff"/></svg>