<svg width="132" height="132" viewBox="0 0 132 132" fill="none" xmlns="http://www.w3.org/2000/svg">
<path fill-rule="evenodd" clip-rule="evenodd" d="M119.855 33.7045C113.147 26.6669 102.271 26.6669 95.5629 33.7045L90.292 39.2343C103.705 53.3063 103.708 76.1194 90.3013 90.1954L119.855 59.1899C126.563 52.1523 126.563 40.7421 119.855 33.7045Z" fill="#48CAED"/>
<path fill-rule="evenodd" clip-rule="evenodd" d="M41.7087 90.2054C55.1247 104.281 76.8763 104.281 90.2923 90.2054C103.708 76.1302 103.708 53.3098 90.2923 39.2346L41.7087 90.2054Z" fill="#2F91F0"/>
<path fill-rule="evenodd" clip-rule="evenodd" d="M12.1463 95.7357C18.8543 102.773 29.7301 102.773 36.4381 95.7357L41.7089 90.2058C28.296 76.1339 28.293 53.3208 41.6997 39.2448L12.1463 70.2503C5.43832 77.2879 5.43832 88.6981 12.1463 95.7357Z" fill="#FBA926"/>
<path fill-rule="evenodd" clip-rule="evenodd" d="M90.2923 39.2348C76.8763 25.1596 55.1247 25.1596 41.7087 39.2348C28.2927 53.31 28.2927 76.1304 41.7087 90.2056L90.2923 39.2348Z" fill="#F73C5C"/>
</svg>
