<svg width="435" height="200" viewBox="0 0 435 200" fill="none" xmlns="http://www.w3.org/2000/svg">
  <g opacity="0.3">
    <rect x="10" y="10" width="2" height="180" fill="#E9EBF0"/>
    <rect x="42" y="10" width="2" height="180" fill="#E9EBF0"/>
    <rect x="74" y="10" width="2" height="180" fill="#E9EBF0"/>
    <rect x="106" y="10" width="2" height="180" fill="#E9EBF0"/>
    <rect x="138" y="10" width="2" height="180" fill="#E9EBF0"/>
    <rect x="170" y="10" width="2" height="180" fill="#E9EBF0"/>
    <rect x="202" y="10" width="2" height="180" fill="#E9EBF0"/>
    <rect x="234" y="10" width="2" height="180" fill="#E9EBF0"/>
    <rect x="266" y="10" width="2" height="180" fill="#E9EBF0"/>
    <rect x="298" y="10" width="2" height="180" fill="#E9EBF0"/>
    <rect x="330" y="10" width="2" height="180" fill="#E9EBF0"/>
    <rect x="362" y="10" width="2" height="180" fill="#E9EBF0"/>
    <rect x="393" y="10" width="2" height="180" fill="#E9EBF0"/>
    <rect x="423" y="10" width="2" height="180" fill="#E9EBF0"/>
  </g>
  <g filter="url(#filter0_d)">
    <rect x="10" y="10" width="322" height="28" rx="3" fill="white"/>
  </g>
  <path d="M10 13C10 11.3431 11.3431 10 13 10V38C11.3431 38 10 36.6569 10 35V13Z" fill="#B9BEC7"/>
  <rect x="25" y="21" width="90" height="6" rx="3" fill="#E9EBF0"/>
  <circle opacity="0.6" cx="318" cy="24" r="8.5" stroke="#B9BEC7" stroke-dasharray="2 2"/>
  <g filter="url(#filter1_d)">
    <rect x="74" y="48" width="194" height="28" rx="3" fill="white"/>
  </g>
  <path d="M74 51C74 49.3431 75.3431 48 77 48V76C75.3431 76 74 74.6569 74 73V51Z" fill="#5595EF"/>
  <rect x="89" y="59" width="90" height="6" rx="3" fill="#E9EBF0"/>
  <circle opacity="0.6" cx="254" cy="62" r="8.5" stroke="#B9BEC7" stroke-dasharray="2 2"/>
  <g filter="url(#filter2_d)">
    <rect x="74" y="86" width="321" height="28" rx="3" fill="white"/>
  </g>
  <path d="M74 89C74 87.3431 75.3431 86 77 86V114C75.3431 114 74 112.657 74 111V89Z" fill="#FBCC43"/>
  <rect x="89" y="97" width="90" height="6" rx="3" fill="#E9EBF0"/>
  <circle opacity="0.6" cx="381" cy="100" r="8.5" stroke="#B9BEC7" stroke-dasharray="2 2"/>
  <g filter="url(#filter3_d)">
    <rect x="138" y="124" width="194" height="28" rx="3" fill="white"/>
  </g>
  <path d="M138 127C138 125.343 139.343 124 141 124V152C139.343 152 138 150.657 138 149V127Z" fill="#E43A25"/>
  <rect x="153" y="135" width="90" height="6" rx="3" fill="#E9EBF0"/>
  <circle opacity="0.6" cx="318" cy="138" r="8.5" stroke="#B9BEC7" stroke-dasharray="2 2"/>
  <g filter="url(#filter4_d)">
    <rect x="202" y="162" width="223" height="28" rx="3" fill="white"/>
  </g>
  <path d="M202 165C202 163.343 203.343 162 205 162V190C203.343 190 202 188.657 202 187V165Z" fill="#7DC560"/>
  <rect x="217" y="173" width="90" height="6" rx="3" fill="#E9EBF0"/>
  <circle opacity="0.6" cx="411" cy="176" r="8.5" stroke="#B9BEC7" stroke-dasharray="2 2"/>
  <defs>
    <filter id="filter0_d" x="0" y="0" width="342" height="48" filterUnits="userSpaceOnUse" color-interpolation-filters="sRGB">
      <feFlood flood-opacity="0" result="BackgroundImageFix"/>
      <feColorMatrix in="SourceAlpha" type="matrix" values="0 0 0 0 0 0 0 0 0 0 0 0 0 0 0 0 0 0 127 0"/>
      <feOffset/>
      <feGaussianBlur stdDeviation="5"/>
      <feColorMatrix type="matrix" values="0 0 0 0 0 0 0 0 0 0 0 0 0 0 0 0 0 0 0.08 0"/>
      <feBlend mode="normal" in2="BackgroundImageFix" result="effect1_dropShadow"/>
      <feBlend mode="normal" in="SourceGraphic" in2="effect1_dropShadow" result="shape"/>
    </filter>
    <filter id="filter1_d" x="64" y="38" width="214" height="48" filterUnits="userSpaceOnUse" color-interpolation-filters="sRGB">
      <feFlood flood-opacity="0" result="BackgroundImageFix"/>
      <feColorMatrix in="SourceAlpha" type="matrix" values="0 0 0 0 0 0 0 0 0 0 0 0 0 0 0 0 0 0 127 0"/>
      <feOffset/>
      <feGaussianBlur stdDeviation="5"/>
      <feColorMatrix type="matrix" values="0 0 0 0 0 0 0 0 0 0 0 0 0 0 0 0 0 0 0.08 0"/>
      <feBlend mode="normal" in2="BackgroundImageFix" result="effect1_dropShadow"/>
      <feBlend mode="normal" in="SourceGraphic" in2="effect1_dropShadow" result="shape"/>
    </filter>
    <filter id="filter2_d" x="64" y="76" width="341" height="48" filterUnits="userSpaceOnUse" color-interpolation-filters="sRGB">
      <feFlood flood-opacity="0" result="BackgroundImageFix"/>
      <feColorMatrix in="SourceAlpha" type="matrix" values="0 0 0 0 0 0 0 0 0 0 0 0 0 0 0 0 0 0 127 0"/>
      <feOffset/>
      <feGaussianBlur stdDeviation="5"/>
      <feColorMatrix type="matrix" values="0 0 0 0 0 0 0 0 0 0 0 0 0 0 0 0 0 0 0.08 0"/>
      <feBlend mode="normal" in2="BackgroundImageFix" result="effect1_dropShadow"/>
      <feBlend mode="normal" in="SourceGraphic" in2="effect1_dropShadow" result="shape"/>
    </filter>
    <filter id="filter3_d" x="128" y="114" width="214" height="48" filterUnits="userSpaceOnUse" color-interpolation-filters="sRGB">
      <feFlood flood-opacity="0" result="BackgroundImageFix"/>
      <feColorMatrix in="SourceAlpha" type="matrix" values="0 0 0 0 0 0 0 0 0 0 0 0 0 0 0 0 0 0 127 0"/>
      <feOffset/>
      <feGaussianBlur stdDeviation="5"/>
      <feColorMatrix type="matrix" values="0 0 0 0 0 0 0 0 0 0 0 0 0 0 0 0 0 0 0.08 0"/>
      <feBlend mode="normal" in2="BackgroundImageFix" result="effect1_dropShadow"/>
      <feBlend mode="normal" in="SourceGraphic" in2="effect1_dropShadow" result="shape"/>
    </filter>
    <filter id="filter4_d" x="192" y="152" width="243" height="48" filterUnits="userSpaceOnUse" color-interpolation-filters="sRGB">
      <feFlood flood-opacity="0" result="BackgroundImageFix"/>
      <feColorMatrix in="SourceAlpha" type="matrix" values="0 0 0 0 0 0 0 0 0 0 0 0 0 0 0 0 0 0 127 0"/>
      <feOffset/>
      <feGaussianBlur stdDeviation="5"/>
      <feColorMatrix type="matrix" values="0 0 0 0 0 0 0 0 0 0 0 0 0 0 0 0 0 0 0.08 0"/>
      <feBlend mode="normal" in2="BackgroundImageFix" result="effect1_dropShadow"/>
      <feBlend mode="normal" in="SourceGraphic" in2="effect1_dropShadow" result="shape"/>
    </filter>
  </defs>
</svg>
